# xmcd CD database file
#
# Track frame offsets:
#	150
#	20552
#	29567
#	39397
#	52062
#	71267
#	84480
#	94755
#	104928
#	116076
#	128872
#	132907
#	151034
#	161330
#	187470
#	201193
#	213088
#	228070
#	240766
#	254120
#	263828
#	276164
#	289029
#	301275
#	313452
#
# Disc length: 4365 seconds
#
# Revision: 6
# Processed by: cddbd v1.5.2PL0 Copyright (c) Steve Scherf et al.
# Submitted via: CDex 1.51
#
DISCID=6e110b19
DTITLE=Various Artist - 50 Country Golden Hits - Vol.2 - CD1
DYEAR=1900
DGENRE=Country
TTITLE0=Gram Parsons and Emmylou Harris - Love Hurts
TTITLE1=Sandy Posey - Born A Woman
TTITLE2=Dave Dudley - Cowboy Boots
TTITLE3=Freddy Fender - Silver Wings
TTITLE4=Dave Travis - Sweet Country Music
TTITLE5=Donna Fargo - Daddy
TTITLE6=Barbara Mandrell - Kaw-Liga - live
TTITLE7=Buck Owens - Rhythm And Booze
TTITLE8=Carl Perkins - Dixie Friend  
TTITLE9=Kitty Wells - Making Believe
TTITLE10=Charley Pride - San Antone
TTITLE11=Ricky Nelson - Garden Party
TTITLE12=B.J. Thomas - Walking Back
TTITLE13=Brenda Lee - Medley - live - Jambalya
TTITLE14=Freddy Fender - Baby I Want To Love You
TTITLE15=Don David Jr. - Country Kings
TTITLE16=Billie Jo Spears - Crystal Chandeliers
TTITLE17=Johnny Paycheck - Georgia In A Jug
TTITLE18=Roy Acuff - Tennessee Waltz
TTITLE19=Ned Miller - From A Jack To A King
TTITLE20=Loretta Lynn - Blue Kentucky Girl
TTITLE21=Frankie Lane - Moonlight Gambler
TTITLE22=Billie Jo Spears - Look What They Have Done To My Song Ma
TTITLE23=Hank Locklin - Queen Of Heart
TTITLE24=Johnny Paycheck - To Give My Love To
EXTD=
EXTT0=
EXTT1=
EXTT2=
EXTT3=
EXTT4=
EXTT5=
EXTT6=
EXTT7=
EXTT8=
EXTT9=
EXTT10=
EXTT11=
EXTT12=
EXTT13=
EXTT14=
EXTT15=
EXTT16=
EXTT17=
EXTT18=
EXTT19=
EXTT20=
EXTT21=
EXTT22=
EXTT23=
EXTT24=
PLAYORDER=
